<svg width="24" height="24" viewBox="0 0 24 24" fill="none" xmlns="http://www.w3.org/2000/svg">
  <path fill-rule="evenodd" clip-rule="evenodd" d="M5.36345 5.3636C5.71492 5.01213 6.28477 5.01213 6.63624 5.3636L18.6571 17.3844C19.0085 17.7359 19.0085 18.3057 18.6571 18.6572C18.3056 19.0087 17.7357 19.0087 17.3843 18.6572L5.36345 6.6364C5.01197 6.28492 5.01197 5.71508 5.36345 5.3636Z" fill="currentColor"/>
  <path fill-rule="evenodd" clip-rule="evenodd" d="M18.6569 5.36357C19.0084 5.71504 19.0084 6.28489 18.6569 6.63636L6.63609 18.6572C6.28462 19.0086 5.71477 19.0086 5.3633 18.6572C5.01183 18.3057 5.01182 17.7359 5.3633 17.3844L17.3841 5.36357C17.7356 5.0121 18.3054 5.0121 18.6569 5.36357Z" fill="currentColor"/>
</svg>
