<svg width="36" height="36" viewBox="0 0 36 36" fill="none" xmlns="http://www.w3.org/2000/svg">
<path fill-rule="evenodd" clip-rule="evenodd" d="M4.5 15.625C4.5 10.8286 4.5 8.43042 5.06628 7.62361C5.63255 6.81681 7.88748 6.04494 12.3974 4.50119L13.2566 4.20708C15.6075 3.40236 16.7829 3 18 3C19.2171 3 20.3925 3.40236 22.7435 4.20708L23.6026 4.50119C28.1125 6.04494 30.3675 6.81681 30.9338 7.62361C31.5 8.43042 31.5 10.8286 31.5 15.625V17.9871C31.5 26.4441 25.1415 30.5482 21.1521 32.2909C20.07 32.7636 19.5289 33 18 33C16.4711 33 15.93 32.7636 14.8478 32.2909C10.8584 30.5482 4.5 26.4441 4.5 17.9871V15.625ZM21 13.5C21 15.1569 19.6569 16.5 18 16.5C16.3431 16.5 15 15.1569 15 13.5C15 11.8431 16.3431 10.5 18 10.5C19.6569 10.5 21 11.8431 21 13.5ZM18 25.5C24 25.5 24 24.1569 24 22.5C24 20.8431 21.3137 19.5 18 19.5C14.6863 19.5 12 20.8431 12 22.5C12 24.1569 12 25.5 18 25.5Z" fill="url(#paint0_linear_7_410)"/>
<defs>
<linearGradient id="paint0_linear_7_410" x1="4.5" y1="3" x2="33.2297" y2="4.75962" gradientUnits="userSpaceOnUse">
<stop stop-color="#FF9D00"/>
<stop offset="1" stop-color="#FF5100"/>
</linearGradient>
</defs>
</svg>
