<svg width="36" height="36" viewBox="0 0 36 36" fill="none" xmlns="http://www.w3.org/2000/svg">
<path d="M3 21.75C3 19.6432 3 18.5899 3.50559 17.8333C3.72447 17.5057 4.00572 17.2245 4.33329 17.0056C5.08996 16.5 6.14331 16.5 8.25 16.5C10.3567 16.5 11.41 16.5 12.1667 17.0056C12.4943 17.2245 12.7755 17.5057 12.9944 17.8333C13.5 18.5899 13.5 19.6432 13.5 21.75V27.75C13.5 29.8567 13.5 30.91 12.9944 31.6666C12.7755 31.9942 12.4943 32.2755 12.1667 32.4944C11.41 33 10.3567 33 8.25 33C6.14331 33 5.08996 33 4.33329 32.4944C4.00572 32.2755 3.72447 31.9942 3.50559 31.6666C3 30.91 3 29.8567 3 27.75V21.75Z" fill="url(#paint0_linear_7_412)"/>
<path fill-rule="evenodd" clip-rule="evenodd" d="M33 15V21C33 26.6568 33 29.4853 31.2426 31.2426C29.4853 33 26.6568 33 21 33C18.4513 33 16.4769 33 14.9157 32.8393C15.418 32.052 15.5965 31.216 15.6753 30.4423C15.7501 29.7058 15.7501 28.8171 15.75 27.849V27.75V21.75V21.651C15.7501 20.6829 15.7501 19.7941 15.6753 19.0576C15.594 18.2584 15.4062 17.3929 14.8652 16.5832C14.4821 16.0099 13.9899 15.5178 13.4167 15.1348C12.6071 14.5938 11.7414 14.406 10.9423 14.3247C10.3743 14.267 9.71577 14.2538 9.00012 14.2508C9.00354 9.08989 9.07931 6.43536 10.7573 4.75735C12.5147 3 15.3432 3 21 3C26.6568 3 29.4853 3 31.2426 4.75735C33 6.51472 33 9.34314 33 15ZM16.875 28.5C16.875 27.8787 17.3787 27.375 18 27.375H25.5C26.1213 27.375 26.625 27.8787 26.625 28.5C26.625 29.1213 26.1213 29.625 25.5 29.625H18C17.3787 29.625 16.875 29.1213 16.875 28.5Z" fill="url(#paint1_linear_7_412)"/>
<defs>
<linearGradient id="paint0_linear_7_412" x1="3" y1="16.5" x2="14.1936" y2="16.9848" gradientUnits="userSpaceOnUse">
<stop stop-color="#FF9D00"/>
<stop offset="1" stop-color="#FF5100"/>
</linearGradient>
<linearGradient id="paint1_linear_7_412" x1="9.00012" y1="3" x2="34.5575" y2="4.39139" gradientUnits="userSpaceOnUse">
<stop stop-color="#FF9D00"/>
<stop offset="1" stop-color="#FF5100"/>
</linearGradient>
</defs>
</svg>
