<svg width="36" height="36" viewBox="0 0 36 36" fill="none" xmlns="http://www.w3.org/2000/svg">
<path d="M22.8774 16.0335C21.3975 14.2627 20.6574 13.3773 19.8067 13.5137C18.9562 13.6501 18.5583 14.7179 17.7624 16.8535L17.5564 17.406C17.3302 18.0129 17.2171 18.3163 16.9971 18.5398C16.7772 18.7635 16.4751 18.8817 15.8709 19.1184L15.321 19.3338C13.195 20.1664 12.132 20.5827 12.0108 21.4336C11.8896 22.2846 12.7904 23.0067 14.592 24.4506L15.058 24.8242C15.57 25.2346 15.826 25.4398 15.9741 25.7206C16.1223 26.0014 16.1458 26.3262 16.1931 26.9755L16.236 27.5668C16.402 29.8522 16.4851 30.9949 17.2608 31.3845C18.0366 31.774 18.9912 31.1524 20.9005 29.9092L21.3945 29.5876C21.937 29.2344 22.2084 29.0577 22.5199 29.0077C22.8316 28.9578 23.1483 29.0401 23.7814 29.205L24.358 29.355C26.5866 29.9347 27.7009 30.2247 28.3015 29.6145C28.9021 29.0043 28.5915 27.898 27.9699 25.6857L27.8091 25.1133C27.6324 24.4846 27.5442 24.1702 27.5886 23.8585C27.633 23.5468 27.805 23.2731 28.1493 22.7254L28.4626 22.227C29.6739 20.2998 30.2796 19.3363 29.875 18.5697C29.4705 17.803 28.3239 17.7409 26.0304 17.6169L25.437 17.5846C24.7852 17.5494 24.4594 17.5318 24.1752 17.389C23.8911 17.2464 23.6808 16.9948 23.2602 16.4916L22.8774 16.0335Z" fill="url(#paint0_linear_7_405)"/>
<path d="M22.3168 7.75085L22.5913 8.53358C22.893 9.39332 23.0437 9.8232 23.3371 10.1399C23.6305 10.4565 24.0333 10.6241 24.8386 10.9593L25.572 11.2645C28.4067 12.4441 29.8239 13.0339 29.9856 14.2394C30.0528 14.7412 29.884 15.2114 29.4907 15.7368C29.3578 15.7008 29.2299 15.6716 29.1096 15.647C28.3203 15.4866 27.3165 15.4325 26.2933 15.3774L25.5588 15.3377C25.4175 15.33 25.3077 15.324 25.2136 15.3179C25.1512 15.245 25.0794 15.159 24.9868 15.0483L24.5134 14.4818C23.8528 13.6911 23.2066 12.9174 22.6056 12.3803C21.9646 11.8075 20.8932 11.0604 19.4508 11.2917C17.9932 11.5253 17.2156 12.5859 16.7962 13.3429C16.4076 14.0443 16.0581 14.9829 15.7041 15.9333L15.4483 16.62C15.405 16.736 15.3703 16.829 15.3399 16.9088C15.2598 16.9409 15.1668 16.9775 15.0505 17.0229L14.3674 17.2905C13.4211 17.6609 12.4874 18.0263 11.7922 18.4263C11.0441 18.8567 9.99208 19.6518 9.78349 21.116C9.57687 22.5662 10.3493 23.6249 10.9339 24.2528C11.3697 24.7208 11.9551 25.2143 12.5803 25.7202C10.2274 26.3584 8.97588 26.5967 8.26458 25.8288C7.46373 24.9644 7.87809 23.3973 8.70682 20.2631L8.92123 19.4523C9.15673 18.5616 9.27448 18.1163 9.21528 17.6747C9.15606 17.2331 8.92659 16.8452 8.46765 16.0695L8.04982 15.3632C6.43477 12.6332 5.62726 11.2682 6.16659 10.1821C6.7059 9.09596 8.23488 9.00803 11.2929 8.83218L12.084 8.78669C12.953 8.73672 13.3875 8.71173 13.7663 8.50958C14.1452 8.30742 14.4256 7.95099 14.9863 7.23813L15.4968 6.58911C17.47 4.08051 18.4567 2.8262 19.5909 3.0194C20.725 3.2126 21.2557 4.72535 22.3168 7.75085Z" fill="url(#paint1_linear_7_405)"/>
<defs>
<linearGradient id="paint0_linear_7_405" x1="12" y1="13.5" x2="31.1363" y2="14.8023" gradientUnits="userSpaceOnUse">
<stop stop-color="#FF9D00"/>
<stop offset="1" stop-color="#FF5100"/>
</linearGradient>
<linearGradient id="paint1_linear_7_405" x1="6" y1="3" x2="31.508" y2="4.7873" gradientUnits="userSpaceOnUse">
<stop stop-color="#FF9D00"/>
<stop offset="1" stop-color="#FF5100"/>
</linearGradient>
</defs>
</svg>
