<svg width="20" height="20" viewBox="0 0 20 20" fill="none" xmlns="http://www.w3.org/2000/svg">
<path d="M7.50081 8.33335C9.34176 8.33335 10.8341 6.84097 10.8341 5.00002C10.8341 3.15907 9.34176 1.66669 7.50081 1.66669C5.65986 1.66669 4.16748 3.15907 4.16748 5.00002C4.16748 6.84097 5.65986 8.33335 7.50081 8.33335Z" fill="#7C7C7C"/>
<path d="M7.50081 17.5008C10.7225 17.5008 13.3341 16.0084 13.3341 14.1675C13.3341 12.3266 10.7225 10.8342 7.50081 10.8342C4.27915 10.8342 1.66748 12.3266 1.66748 14.1675C1.66748 16.0084 4.27915 17.5008 7.50081 17.5008Z" fill="#7C7C7C"/>
<path d="M17.4997 14.1671C17.4997 15.5478 15.8035 16.667 13.7324 16.667C14.3426 16.0001 14.7621 15.1629 14.7621 14.1682C14.7621 13.1724 14.3416 12.3344 13.7302 11.6671C15.8013 11.6671 17.4997 12.7864 17.4997 14.1671Z" fill="#7C7C7C"/>
<path d="M14.9996 5.00061C14.9996 6.38133 13.8803 7.50061 12.4996 7.50061C12.1985 7.50061 11.9099 7.44739 11.6426 7.34984C12.0368 6.65644 12.262 5.85435 12.262 4.99969C12.262 4.14564 12.0372 3.34412 11.6434 2.65106C11.9105 2.55372 12.1988 2.50061 12.4996 2.50061C13.8803 2.50061 14.9996 3.6199 14.9996 5.00061Z" fill="#7C7C7C"/>
</svg>
