<svg xmlns="http://www.w3.org/2000/svg"
     shape-rendering="geometricPrecision"
     width="4000" height="4000" viewBox="155 70 320 340" preserveAspectRatio="xMidYMid meet">
  <metadata>null</metadata>
  
  <path d="
M 174.889 158.936
C 189.321 150.159 204.211 142.084 218.747 133.47
C 236.984 122.662 255.294 111.916 273.723 101.442
C 282.458 96.478 291.043 91.252 299.818 86.358
C 302.382 84.928 304.964 83.524 307.515 82.074
C 308.76 81.368 310.103 80.196 311.527 79.984
C 356.241 106.753 401.405 132.917 446.697 158.676
C 446.644 197.78 446.83 236.895 446.768 276.004
C 446.751 287.004 446.752 298.004 446.784 309.004
C 446.793 312.17 446.778 315.338 446.81 318.504
C 446.822 319.696 447.2 321.55 446.717 322.642
C 439.391 327.247 431.443 331.01 423.962 335.379
C 402.337 348.009 380.658 360.547 358.945 373.028
C 348.467 379.05 338.016 385.117 327.549 391.156
C 323.813 393.311 320.117 395.54 316.36 397.658
C 314.601 398.649 312.823 400.006 310.958 400.757
C 309.691 400.585 308.54 399.539 307.442 398.926
C 305.089 397.612 302.785 396.211 300.448 394.87
C 291.784 389.901 283.221 384.724 274.49 379.875
C 252.617 367.726 231.251 354.66 209.569 342.177
C 202.374 338.034 195.267 333.746 188.041 329.656
C 183.779 327.243 179.592 324.219 175.068 322.323
C 174.512 321.572 174.867 319.938 174.861 319.003
C 174.844 316.338 174.882 313.671 174.891 311.005
C 174.929 300.506 174.914 290.006 174.915 279.506
C 174.92 239.319 174.693 199.122 174.889 158.936 Z
M 184.967 170.119
C 184.756 175.61 185.034 181.137 185.066 186.631
C 185.079 188.725 184.508 192.089 185.34 193.987
C 190.843 197.398 196.654 200.396 202.233 203.697
C 204.263 204.897 206.64 205.902 208.397 207.486
C 208.257 228.818 208.48 250.16 208.425 271.5
C 208.407 278.471 208.387 285.443 208.388 292.415
C 208.388 295.747 207.91 299.89 208.673 303.133
C 210.927 305.004 213.934 306.351 216.491 307.776
C 221.368 310.494 226.188 313.334 231.013 316.144
C 247.813 325.931 264.614 335.725 281.454 345.442
C 288.099 349.276 294.789 353.059 301.498 356.778
C 303.468 357.871 305.442 358.98 307.39 360.113
C 308.432 360.72 309.635 361.65 310.85 361.791
C 313.523 360.758 316.24 358.698 318.682 357.179
C 319.029 356.523 318.816 355.516 318.792 354.801
C 318.723 352.702 318.74 350.599 318.739 348.5
C 318.736 341.334 318.722 334.167 318.711 327.001
C 318.684 308.21 318.555 289.408 318.792 270.618
C 318.968 256.657 318.509 241.653 306.325 232.409
C 299.037 226.879 290.599 222.702 282.659 218.202
C 270.76 211.459 258.942 204.47 247.253 197.368
C 242.119 194.249 236.826 191.376 231.754 188.155
C 230.371 187.277 226.911 185.934 226.199 184.507
C 233.106 180.855 239.83 176.495 246.507 172.408
C 248.688 171.072 251.196 170.152 253.296 168.719
C 253.351 168.3 252.517 167.967 252.204 167.764
C 250.799 166.854 249.333 166.043 247.9 165.177
C 243.626 162.595 239.354 159.944 235.032 157.451
C 234.031 156.874 230.938 155.54 230.677 154.541
C 248.059 142.835 266.921 132.916 285.134 122.529
C 291.428 118.939 297.557 115.074 303.939 111.635
C 306.205 110.414 308.562 108.525 311.02 107.774
C 313.582 108.104 316.284 110.706 318.522 111.963
C 324.467 115.302 330.331 118.777 336.216 122.22
C 356.344 133.995 376.435 145.846 396.639 157.49
C 403.121 161.226 409.577 165.021 416.084 168.711
C 417.809 169.689 419.505 170.718 421.215 171.72
C 422.094 172.235 423.287 172.626 423.844 173.519
C 423.283 179.741 423.774 186.252 423.776 192.505
C 423.779 204.171 423.72 215.837 423.729 227.503
C 423.733 232.337 423.745 237.17 423.736 242.004
C 423.734 243.617 424.299 246.675 423.475 248.064
C 413.177 254.676 402.053 260.25 391.374 266.233
C 379.556 272.855 367.927 280.161 355.685 285.963
C 355.89 286.809 358.997 288.022 359.868 288.528
C 363.844 290.839 367.965 292.916 371.986 295.152
C 384.273 301.982 396.13 309.604 408.515 316.255
C 411.932 318.09 415.23 320.138 418.602 322.052
C 420.009 322.851 421.52 324.206 423.102 324.574
C 424.33 324.425 425.753 323.165 426.823 322.537
C 429.076 321.217 431.392 320.005 433.638 318.674
C 434.613 318.096 436.271 317.663 436.904 316.682
C 437.362 309.703 436.834 302.499 436.804 295.498
C 436.746 281.832 436.746 268.165 436.706 254.499
C 436.648 234.832 436.615 215.164 436.61 195.497
C 436.608 185.401 436.913 175.255 436.62 165.167
C 435.429 164.147 433.76 163.508 432.415 162.688
C 429.042 160.633 425.625 158.634 422.204 156.659
C 411.834 150.672 401.497 144.623 391.12 138.651
C 372.562 127.971 354.232 116.9 335.683 106.202
C 327.661 101.575 319.849 96.027 311.539 91.967
C 309.967 92.574 308.612 93.66 307.151 94.492
C 303.526 96.556 299.88 98.598 296.223 100.606
C 283.358 107.673 270.745 115.168 258.061 122.551
C 240.783 132.609 223.314 142.339 206.173 152.642
C 199.291 156.779 191.727 160.321 185.188 164.961
C 184.657 166.463 185.173 168.504 184.967 170.119 Z
M 185.021 206.608
C 184.351 214.988 185.039 223.592 185.029 231.997
C 185.01 248.662 184.918 265.33 184.909 281.997
C 184.905 289.831 184.894 297.664 184.874 305.498
C 184.867 307.929 184.849 310.361 184.891 312.791
C 184.911 313.89 184.707 315.198 185.052 316.244
C 189.649 319.563 195.035 322.047 199.964 324.845
C 207.024 328.854 213.923 333.151 220.95 337.219
C 239.981 348.237 258.677 360.045 278.012 370.522
C 285.533 374.597 293.112 378.817 300.382 383.325
C 303.011 384.955 305.68 386.538 308.444 387.929
C 309.346 388.383 310.379 389.208 311.406 389.252
C 313.988 387.958 316.401 386.083 318.934 384.652
C 326.746 380.238 334.524 375.755 342.225 371.154
C 343.041 369.17 342.324 365.665 342.311 363.5
C 342.275 357.333 342.253 351.166 342.25 344.998
C 342.24 324.134 342.621 303.239 342.29 282.378
C 343.645 281.425 345.217 280.828 346.651 280.004
C 350.994 277.507 355.288 274.948 359.657 272.498
C 371.082 266.091 382.432 259.546 393.88 253.179
C 398.589 250.56 403.205 247.774 407.918 245.159
C 409.32 244.382 412.766 243.187 413.583 241.836
C 414.178 235.024 413.459 227.85 413.443 221.004
C 413.411 207.046 413.51 193.083 413.569 179.13
C 411.978 177.926 409.968 177.135 408.235 176.139
C 404.836 174.186 401.473 172.171 398.09 170.19
C 387.619 164.056 377.108 157.985 366.634 151.854
C 354.295 144.631 342.038 137.256 329.62 130.167
C 323.634 126.751 317.795 122.535 311.535 119.661
C 309.648 119.779 307.456 121.586 305.831 122.522
C 301.86 124.808 297.917 127.143 293.946 129.429
C 279.208 137.913 264.439 146.389 249.833 155.049
C 249.705 155.625 252.42 156.679 253.011 156.972
C 255.398 158.156 257.663 159.569 259.97 160.897
C 261.085 161.539 262.259 162.557 263.523 162.834
C 264.936 162.404 266.276 161.217 267.527 160.436
C 269.488 159.212 271.525 158.083 273.529 156.93
C 281.908 152.108 290.24 147.199 298.665 142.454
C 302.717 140.172 306.789 137.013 311.074 135.254
C 313.238 135.88 315.481 137.824 317.446 138.959
C 321.881 141.521 326.32 144.062 330.717 146.691
C 344.259 154.787 357.947 162.659 371.64 170.498
C 378.341 174.334 385.158 178.014 391.781 181.98
C 394.253 183.46 397.912 184.886 399.867 187.009
C 399.21 198.234 399.896 209.749 399.944 221
C 399.957 224.009 400.053 227.016 400.069 230.025
C 400.075 231.086 400.392 232.849 399.877 233.795
C 398.296 235.294 395.969 236.107 394.09 237.17
C 389.914 239.534 385.652 241.732 381.496 244.133
C 369.325 251.163 357.277 258.4 345.137 265.483
C 341.298 267.723 337.319 269.73 333.511 272.021
C 332.122 272.856 330.147 273.531 329.06 274.737
C 329.23 294.819 329.051 314.917 329.085 335.005
C 329.096 341.173 329.116 347.341 329.157 353.509
C 329.176 356.373 329.759 359.942 329.013 362.711
C 326.117 365.39 321.886 367.194 318.477 369.147
C 315.964 370.588 313.568 372.601 310.964 373.823
C 309.852 373.7 308.938 372.951 307.969 372.442
C 305.609 371.202 303.373 369.739 301.088 368.372
C 293.962 364.106 286.809 359.883 279.551 355.845
C 262.372 346.287 245.501 336.155 228.469 326.338
C 221.638 322.401 214.788 318.498 207.949 314.576
C 204.816 312.779 201.292 311.244 198.433 309.027
C 197.706 306.62 198.212 303.401 198.224 300.894
C 198.25 295.429 198.225 289.964 198.232 284.499
C 198.251 268.498 198.243 252.498 198.25 236.497
C 198.253 231.33 198.265 226.164 198.263 220.997
C 198.262 218.468 198.568 215.699 198.147 213.204
C 195.35 210.775 191.461 209.282 188.282 207.374
C 187.558 206.94 185.454 205.357 185.031 206.089
C 185.028 206.262 185.024 206.435 185.021 206.608 Z
M 245.72 185.045
C 258.935 191.972 271.776 199.957 284.665 207.497
C 295.145 213.627 307.244 218.749 315.958 227.408
C 321.305 232.722 325.193 239.957 327.081 247.229
C 328.423 252.395 328.789 257.737 328.833 263.053
C 331.447 262.385 333.979 260.431 336.273 259.056
C 340.514 256.513 344.682 253.85 348.967 251.379
C 357.683 246.352 366.33 241.206 375.029 236.15
C 379.819 233.366 385.253 231.053 389.656 227.689
C 390.004 226.577 389.774 225.156 389.785 223.997
C 389.809 221.498 389.824 219 389.826 216.501
C 389.834 208.639 390.314 200.531 389.744 192.696
C 386.452 190.458 382.66 188.74 379.206 186.743
C 373.199 183.269 367.198 179.772 361.232 176.229
C 349.592 169.316 337.916 162.411 326.139 155.735
C 321.056 152.854 316.154 149.522 311.016 146.772
C 309.719 147.261 308.504 148.359 307.275 149.037
C 303.541 151.097 299.949 153.416 296.223 155.495
C 285.668 161.38 275.307 167.607 264.772 173.525
C 260.22 176.081 255.799 178.848 251.318 181.523
C 249.667 182.508 246.837 183.531 245.72 185.045 Z
M 352.429 297.109
C 351.6 314.487 352.283 332.102 352.347 349.5
C 352.366 354.735 352.656 360.049 352.41 365.275
C 352.451 365.421 354.837 363.801 355.227 363.552
C 357.078 362.372 359.05 361.36 360.941 360.243
C 366.607 356.896 372.36 353.686 378.055 350.387
C 386.887 345.272 395.741 340.2 404.582 335.101
C 406.551 333.965 408.523 332.863 410.553 331.839
C 410.798 331.715 412.736 330.928 412.56 330.54
C 412.102 329.527 409.486 328.638 408.547 328.119
C 404.848 326.074 401.255 323.831 397.574 321.751
C 388.245 316.481 378.891 311.262 369.707 305.741
C 364.253 302.463 358.486 298.149 352.489 296.006
C 352.469 296.374 352.449 296.742 352.429 297.109 Z"
        opacity="1" fill="rgb(138,155,222)" fill-rule="evenodd" />
  
  <path d="
M 221.916 200.603
C 221.895 200.133 221.874 199.663 221.854 199.192
C 239.366 209.424 257.062 219.372 274.635 229.518
C 285.643 235.872 296.798 241.879 302.504 253.876
C 306.896 263.109 305.387 274.098 305.37 283.996
C 305.344 299.231 305.32 314.476 305.525 329.709
C 305.585 334.143 305.117 338.629 305.352 343.053
C 302.925 342.671 299.844 340.106 297.748 338.847
C 292.391 335.63 286.92 332.584 281.505 329.464
C 269.235 322.396 256.842 315.496 244.696 308.216
C 237.335 303.805 230.007 298.65 222.173 295.116
C 221.222 293.822 221.922 290.139 221.93 288.504
C 221.962 282.504 221.955 276.503 221.959 270.503
C 221.969 255.17 221.976 239.837 221.919 224.504
C 221.889 216.656 221.099 208.409 221.916 200.603 Z
M 232.278 216.456
C 232.378 232.802 232.259 249.156 232.257 265.504
C 232.256 270.671 232.256 275.838 232.276 281.005
C 232.285 283.531 231.957 286.475 232.427 288.941
C 237.466 292.63 243.462 295.516 248.866 298.662
C 258.453 304.244 267.958 309.973 277.557 315.531
C 281.293 317.694 285.004 319.897 288.732 322.076
C 290.902 323.345 293.41 324.354 295.327 326.006
C 294.588 310.913 295.258 295.618 295.271 280.502
C 295.278 272.904 296.448 264.555 292.989 257.521
C 288.677 248.754 279.829 244.378 271.761 239.691
C 258.554 232.018 245.409 224.238 232.278 216.456 Z"
        opacity="1" fill="rgb(154,147,224)" fill-rule="evenodd" />
</svg>
