<svg width="16" height="16" viewBox="0 0 16 16" fill="none" xmlns="http://www.w3.org/2000/svg">
  <g id="files">
    <path id="Vector" d="M10.3332 1.33301H5.73317C5.4665 1.33301 5.19984 1.46634 4.99984 1.66634C4.79984 1.86634 4.6665 2.13301 4.6665 2.39967V10.933C4.6665 11.1997 4.79984 11.4663 4.99984 11.6663C5.19984 11.8663 5.4665 11.9997 5.73317 11.9997H12.2665C12.5332 11.9997 12.7998 11.8663 12.9998 11.6663C13.1998 11.4663 13.3332 11.1997 13.3332 10.933V4.33301L10.3332 1.33301Z" stroke="currentColor" stroke-width="1.3" stroke-linecap="round" stroke-linejoin="round"/>
    <path id="Vector_2" d="M2 5.06641V13.5997C2 13.8664 2.13333 14.1331 2.33333 14.3331C2.53333 14.5331 2.8 14.6664 3.06667 14.6664H9.6" stroke="currentColor" stroke-width="1.3" stroke-linecap="round" stroke-linejoin="round"/>
    <path id="Vector_3" d="M10 1.33301V4.66634H13.3333" stroke="currentColor" stroke-width="1.3" stroke-linecap="round" stroke-linejoin="round"/>
  </g>
</svg>
