<svg xmlns="http://www.w3.org/2000/svg" xmlns:xlink="http://www.w3.org/1999/xlink" version="1.1" x="0px" y="0px" viewBox="0 0 100 100" enable-background="new 0 0 100 100" xml:space="preserve"><g><g><path d="M90,19.593H79.711v-6.446c0-2.981-2.425-5.406-5.406-5.406s-5.406,2.425-5.406,5.406v6.446H56.656v-6.446    c0-2.981-2.425-5.406-5.406-5.406s-5.406,2.425-5.406,5.406v6.446H33.602v-6.446c0-2.981-2.425-5.406-5.406-5.406    s-5.406,2.425-5.406,5.406v6.446H10c-3.86,0-7,3.14-7,7v15.5V85.26c0,3.86,3.14,7,7,7h80c3.86,0,7-3.14,7-7V42.093v-15.5    C97,22.733,93.86,19.593,90,19.593z M72.898,13.146c0-0.775,0.631-1.406,1.406-1.406s1.406,0.631,1.406,1.406v8.446v8.446    c0,0.775-0.631,1.406-1.406,1.406s-1.406-0.631-1.406-1.406v-8.446V13.146z M49.844,13.146c0-0.775,0.631-1.406,1.406-1.406    s1.406,0.631,1.406,1.406v8.446v8.446c0,0.775-0.631,1.406-1.406,1.406s-1.406-0.631-1.406-1.406v-8.446V13.146z M26.789,13.146    c0-0.775,0.631-1.406,1.406-1.406s1.406,0.631,1.406,1.406v8.446v8.446c0,0.775-0.631,1.406-1.406,1.406s-1.406-0.631-1.406-1.406    v-8.446V13.146z M7,26.593c0-1.654,1.346-3,3-3h12.789v6.446c0,2.981,2.425,5.406,5.406,5.406s5.406-2.425,5.406-5.406v-6.446    h12.242v6.446c0,2.981,2.425,5.406,5.406,5.406s5.406-2.425,5.406-5.406v-6.446h12.242v6.446c0,2.981,2.425,5.406,5.406,5.406    s5.406-2.425,5.406-5.406v-6.446H90c1.654,0,3,1.346,3,3v13.5H7V26.593z M90,88.26H10c-1.654,0-3-1.346-3-3V44.093h86V85.26    C93,86.914,91.654,88.26,90,88.26z"/><path d="M38.464,50.045h-9.762c-1.104,0-2,0.896-2,2v9.762c0,1.104,0.896,2,2,2h9.762c1.104,0,2-0.896,2-2v-9.762    C40.464,50.94,39.569,50.045,38.464,50.045z M36.464,59.807h-5.762v-5.762h5.762V59.807z"/><path d="M54.88,50.045h-9.762c-1.104,0-2,0.896-2,2v9.762c0,1.104,0.896,2,2,2h9.762c1.104,0,2-0.896,2-2v-9.762    C56.88,50.94,55.985,50.045,54.88,50.045z M52.88,59.807h-5.762v-5.762h5.762V59.807z"/><path d="M71.297,50.045h-9.762c-1.104,0-2,0.896-2,2v9.762c0,1.104,0.896,2,2,2h9.762c1.104,0,2-0.896,2-2v-9.762    C73.297,50.94,72.401,50.045,71.297,50.045z M69.297,59.807h-5.762v-5.762h5.762V59.807z"/><path d="M87.713,50.045h-9.762c-1.104,0-2,0.896-2,2v9.762c0,1.104,0.896,2,2,2h9.762c1.104,0,2-0.896,2-2v-9.762    C89.713,50.94,88.817,50.045,87.713,50.045z M85.713,59.807h-5.762v-5.762h5.762V59.807z"/><path d="M22.049,67.711h-9.762c-1.104,0-2,0.896-2,2v9.762c0,1.104,0.896,2,2,2h9.762c1.104,0,2-0.896,2-2v-9.762    C24.049,68.607,23.153,67.711,22.049,67.711z M20.049,77.474h-5.762v-5.762h5.762V77.474z"/><path d="M38.464,67.711h-9.762c-1.104,0-2,0.896-2,2v9.762c0,1.104,0.896,2,2,2h9.762c1.104,0,2-0.896,2-2v-9.762    C40.464,68.607,39.569,67.711,38.464,67.711z M36.464,77.474h-5.762v-5.762h5.762V77.474z"/><path d="M54.88,67.711h-9.762c-1.104,0-2,0.896-2,2v9.762c0,1.104,0.896,2,2,2h9.762c1.104,0,2-0.896,2-2v-9.762    C56.88,68.607,55.985,67.711,54.88,67.711z M52.88,77.474h-5.762v-5.762h5.762V77.474z"/><path d="M71.297,67.711h-9.762c-1.104,0-2,0.896-2,2v9.762c0,1.104,0.896,2,2,2h9.762c1.104,0,2-0.896,2-2v-9.762    C73.297,68.607,72.401,67.711,71.297,67.711z M69.297,77.474h-5.762v-5.762h5.762V77.474z"/></g></g></svg>
