<svg viewBox="0 0 16 16" xmlns="http://www.w3.org/2000/svg">
  <path fill-rule="evenodd" clip-rule="evenodd" d="M1.82932 8.00005C1.8723 8.06207 1.92174 8.13113 1.97768 8.20598C2.23473 8.54991 2.62558 9.01116 3.15498 9.47213C4.21088 10.3916 5.80386 11.3 7.99999 11.3C10.1961 11.3 11.7891 10.3916 12.845 9.47213C13.3744 9.01116 13.7652 8.54991 14.0223 8.20598C14.0782 8.13113 14.1277 8.06207 14.1707 8.00005C14.1277 7.93803 14.0782 7.86896 14.0223 7.79411C13.7652 7.45019 13.3744 6.98894 12.845 6.52796C11.7891 5.60854 10.1961 4.70005 7.99999 4.70005C5.80386 4.70005 4.21088 5.60854 3.15498 6.52796C2.62558 6.98894 2.23473 7.45019 1.97768 7.79411C1.92174 7.86896 1.8723 7.93803 1.82932 8.00005ZM15 8.00005C15.6141 7.66418 15.614 7.66389 15.6138 7.66358L15.6125 7.66122L15.6101 7.65679L15.6027 7.64364C15.5967 7.633 15.5884 7.61862 15.5779 7.60078C15.557 7.56509 15.5271 7.51545 15.4881 7.45386C15.4102 7.33075 15.2957 7.15942 15.1437 6.95598C14.8402 6.54991 14.3834 6.01116 13.7644 5.47213C12.5234 4.39156 10.6164 3.30005 7.99999 3.30005C5.38361 3.30005 3.47659 4.39156 2.23562 5.47213C1.61658 6.01116 1.15978 6.54991 0.856279 6.95598C0.704231 7.15942 0.589769 7.33075 0.511867 7.45386C0.472892 7.51545 0.442991 7.56509 0.422043 7.60078C0.411566 7.61862 0.403321 7.633 0.397292 7.64364L0.389906 7.65679L0.387454 7.66122L0.386537 7.66288C0.386368 7.66319 0.385827 7.66418 0.999986 8.00005L0.385827 7.66418L0.202148 8.00005L0.385827 8.33592L0.999986 8.00005C0.385827 8.33592 0.385658 8.33561 0.385827 8.33592L0.386537 8.33721L0.387454 8.33888L0.389906 8.3433L0.397292 8.35645C0.403321 8.3671 0.411566 8.38147 0.422043 8.39932C0.442991 8.43501 0.472892 8.48465 0.511867 8.54624C0.589769 8.66934 0.704231 8.84068 0.856279 9.04411C1.15978 9.45019 1.61658 9.98894 2.23562 10.528C3.47659 11.6085 5.38361 12.7 7.99999 12.7C10.6164 12.7 12.5234 11.6085 13.7644 10.528C14.3834 9.98894 14.8402 9.45019 15.1437 9.04411C15.2957 8.84068 15.4102 8.66934 15.4881 8.54624C15.5271 8.48465 15.557 8.43501 15.5779 8.39932C15.5884 8.38147 15.5967 8.3671 15.6027 8.35645L15.6101 8.3433L15.6125 8.33888L15.6134 8.33721C15.6136 8.33691 15.6141 8.33592 15 8.00005ZM15 8.00005L15.6141 8.33592L15.7978 8.00005L15.6138 7.66358L15 8.00005Z"/>
  <path d="M9.5 8C9.5 8.82843 8.82843 9.5 8 9.5C7.17157 9.5 6.5 8.82843 6.5 8C6.5 7.17157 7.17157 6.5 8 6.5C8.82843 6.5 9.5 7.17157 9.5 8Z"/>
</svg>
