<svg viewBox="0 0 16 16" xmlns="http://www.w3.org/2000/svg">
  <path fill-rule="evenodd" clip-rule="evenodd" d="M1.82932 8.00005C1.8723 7.93803 1.92174 7.86896 1.97768 7.79411C2.23473 7.45019 2.62558 6.98894 3.15498 6.52796C4.21088 5.60854 5.80386 4.70005 7.99999 4.70005C8.38659 4.70005 8.69999 4.38665 8.69999 4.00005C8.69999 3.61345 8.38659 3.30005 7.99999 3.30005C5.38361 3.30005 3.47659 4.39156 2.23562 5.47213C1.61658 6.01116 1.15978 6.54991 0.856278 6.95598C0.704231 7.15942 0.589769 7.33075 0.511867 7.45386C0.472892 7.51545 0.442991 7.56509 0.422043 7.60078C0.411566 7.61862 0.403321 7.633 0.397292 7.64364L0.389906 7.65679L0.387454 7.66122L0.386537 7.66288C0.386368 7.66319 0.385827 7.66418 0.999986 8.00005L0.385827 7.66418L0.202148 8.00005L0.385827 8.33592L0.999986 8.00005C0.385827 8.33592 0.385765 8.33581 0.385827 8.33592L0.386356 8.33688L0.387008 8.33807L0.388679 8.3411L0.393496 8.34972L0.409045 8.377C0.422046 8.39952 0.440343 8.43059 0.463991 8.46929C0.511268 8.54666 0.580061 8.65476 0.670829 8.78621C0.852134 9.04879 1.12251 9.4066 1.4859 9.79981C1.74829 10.0837 2.19116 10.1012 2.47508 9.8388C2.759 9.57641 2.77646 9.13354 2.51407 8.84962C2.20687 8.51721 1.97936 8.21655 1.82932 8.00005ZM13.5249 6.1613C13.8088 5.89891 14.2517 5.91637 14.5141 6.20029C14.8775 6.5935 15.1478 6.95131 15.3291 7.21388C15.4199 7.34534 15.4887 7.45343 15.536 7.53081C15.5596 7.56951 15.5779 7.60058 15.5909 7.6231L15.6065 7.65037L15.6113 7.659L15.613 7.66203L15.6136 7.66321C15.6137 7.66333 15.6141 7.66418 15 8.00005C15.6141 8.33592 15.614 8.33621 15.6138 8.33652L15.6125 8.33888L15.6101 8.3433L15.6027 8.35645C15.5967 8.3671 15.5884 8.38147 15.5779 8.39932C15.557 8.43501 15.5271 8.48465 15.4881 8.54624C15.4102 8.66934 15.2957 8.84068 15.1437 9.04411C14.8402 9.45019 14.3834 9.98894 13.7644 10.528C12.5234 11.6085 10.6164 12.7 7.99999 12.7C7.61339 12.7 7.29999 12.3866 7.29999 12C7.29999 11.6134 7.61339 11.3 7.99999 11.3C10.1961 11.3 11.7891 10.3916 12.845 9.47213C13.3744 9.01116 13.7652 8.54991 14.0223 8.20598C14.0782 8.13113 14.1277 8.06207 14.1707 8.00005C14.0206 7.78354 13.7931 7.48289 13.4859 7.15048C13.2235 6.86656 13.241 6.42369 13.5249 6.1613ZM15 8.00005L15.6138 8.33652L15.7978 8.00005L15.6141 7.66418L15 8.00005Z"/>
  <path fill-rule="evenodd" clip-rule="evenodd" d="M14.4948 1.50507C14.7681 1.77844 14.7681 2.22166 14.4948 2.49502L2.49478 14.495C2.22141 14.7684 1.7782 14.7684 1.50483 14.495C1.23146 14.2217 1.23146 13.7784 1.50483 13.5051L13.5048 1.50507C13.7782 1.23171 14.2214 1.23171 14.4948 1.50507Z"/>
</svg>
