<svg width="34" height="34" viewBox="0 0 34 34" fill="none" xmlns="http://www.w3.org/2000/svg">
<path fill-rule="evenodd" clip-rule="evenodd" d="M33.6666 16.9999C33.6666 26.2046 26.2046 33.6666 16.9999 33.6666C7.79517 33.6666 0.333252 26.2046 0.333252 16.9999C0.333252 7.79517 7.79517 0.333252 16.9999 0.333252C26.2046 0.333252 33.6666 7.79517 33.6666 16.9999ZM16.9999 9.91658C15.9644 9.91658 15.1249 10.7561 15.1249 11.7916C15.1249 12.4819 14.5653 13.0416 13.8749 13.0416C13.1846 13.0416 12.6249 12.4819 12.6249 11.7916C12.6249 9.37533 14.5838 7.41658 16.9999 7.41658C19.4161 7.41658 21.3749 9.37533 21.3749 11.7916C21.3749 12.9763 20.9024 14.0533 20.1383 14.8399C19.9844 14.9981 19.8378 15.1448 19.6978 15.2846C19.3381 15.6439 19.0229 15.9588 18.7464 16.3141C18.3814 16.7831 18.2499 17.1279 18.2499 17.4166V18.6666C18.2499 19.3569 17.6903 19.9166 16.9999 19.9166C16.3096 19.9166 15.7499 19.3569 15.7499 18.6666V17.4166C15.7499 16.3246 16.2583 15.4406 16.7736 14.7786C17.1548 14.2888 17.6339 13.8104 18.0229 13.4224C18.1403 13.3053 18.2493 13.1964 18.3449 13.0979C18.6743 12.759 18.8749 12.3 18.8749 11.7916C18.8749 10.7561 18.0354 9.91658 16.9999 9.91658ZM16.9999 25.3333C17.9204 25.3333 18.6666 24.5871 18.6666 23.6666C18.6666 22.7461 17.9204 21.9999 16.9999 21.9999C16.0794 21.9999 15.3333 22.7461 15.3333 23.6666C15.3333 24.5871 16.0794 25.3333 16.9999 25.3333Z" fill="url(#paint0_linear_16_1306)"/>
<defs>
<linearGradient id="paint0_linear_16_1306" x1="0.333252" y1="0.333252" x2="35.7709" y2="2.74489" gradientUnits="userSpaceOnUse">
<stop stop-color="#FF9D00"/>
<stop offset="1" stop-color="#FF5100"/>
</linearGradient>
</defs>
</svg>
