<svg width="40" height="40" viewBox="0 0 40 40" fill="none" xmlns="http://www.w3.org/2000/svg">
<path d="M20.0002 36.6666C29.2048 36.6666 36.6668 29.2046 36.6668 20C36.6668 18.49 36.466 17.027 36.0897 15.636C35.9475 15.1105 35.3313 14.9014 34.8382 15.1318C33.8748 15.5819 32.8002 15.8333 31.6668 15.8333C27.5247 15.8333 24.1668 12.4754 24.1668 8.33331C24.1668 7.19991 24.4182 6.12525 24.8683 5.16201C25.0988 4.66883 24.8897 4.05265 24.3642 3.91048C22.9732 3.53411 21.5102 3.33331 20.0002 3.33331C10.7954 3.33331 3.3335 10.7952 3.3335 20C3.3335 22.6661 3.95953 25.186 5.0726 27.4208C5.3684 28.0146 5.46685 28.6935 5.29536 29.3343L4.30268 33.0445C3.87175 34.655 5.34518 36.1283 6.95575 35.6975L10.6658 34.7048C11.3067 34.5333 11.9855 34.6318 12.5794 34.9275C14.8141 36.0406 17.334 36.6666 20.0002 36.6666Z" fill="url(#paint0_linear_16_2515)"/>
<path d="M31.6665 13.3333C34.4279 13.3333 36.6665 11.0947 36.6665 8.33331C36.6665 5.57189 34.4279 3.33331 31.6665 3.33331C28.9051 3.33331 26.6665 5.57189 26.6665 8.33331C26.6665 11.0947 28.9051 13.3333 31.6665 13.3333Z" fill="url(#paint1_linear_16_2515)"/>
<defs>
<linearGradient id="paint0_linear_16_2515" x1="3.3335" y1="3.33331" x2="38.7711" y2="5.74495" gradientUnits="userSpaceOnUse">
<stop stop-color="#FF9D00"/>
<stop offset="1" stop-color="#FF5100"/>
</linearGradient>
<linearGradient id="paint1_linear_16_2515" x1="26.6665" y1="3.33331" x2="37.2978" y2="4.0568" gradientUnits="userSpaceOnUse">
<stop stop-color="#FF9D00"/>
<stop offset="1" stop-color="#FF5100"/>
</linearGradient>
</defs>
</svg>
