<svg width="85" height="32" viewBox="0 0 85 32" fill="none" xmlns="http://www.w3.org/2000/svg">
<g clip-path="url(#clip0_322_149)">
<path d="M14.9009 14.7045C27.9878 7.96763 46.6465 3.82187 55.263 8.74494C63.8796 13.668 61.0939 11.7247 73.0145 14.1862C84.9352 16.6478 84.8704 21.3117 84.9352 24.8745C84.9872 27.7247 83.7907 28.3077 83.186 28.2429L76.9665 28.4808C75.7323 31.1085 72.8351 31.9018 71.2005 31.9352C68.3614 31.9352 66.8093 30.6258 65.9527 29.2025C56.7791 29.1411 46.2793 28.0622 42.1761 27.5304C50.1059 27.9968 60.7859 27.5087 65.1345 27.2065C65.0551 26.9042 64.9048 26.0664 64.9386 25.1336C56.1974 25.1336 43.8755 23.7085 38.8072 22.996C54.7707 23.3647 63.5558 22.8424 65.9527 22.5351C66.9126 20.9362 68.5616 19.498 71.2005 19.498C76.7721 19.498 77.5495 25.0039 77.5495 25.6518C77.5495 26.0655 77.5197 26.4536 77.4636 26.8178L82.279 26.4292C82.7972 25.9109 82.6677 24.4858 82.5381 23.8381C81.398 23.7862 80.4651 22.996 80.141 22.6073C81.4367 22.9182 82.2791 22.7368 82.5381 22.6073C82.2142 19.5628 77.5495 16.4534 67.378 16.9069C59.241 17.2696 48.8707 16.5399 44.7027 16.1296C49.4192 16.1296 56.7747 15.3954 59.8628 15.0283C58.0489 13.4521 52.7622 10.0535 46.128 9.06883C40.8653 8.28773 26.2347 11.6028 16.1966 15.7024C10.4178 18.0626 6.16106 20.6828 6.09 22.9312C5.89564 29.085 30.1258 29.5385 30.1905 26.5587C30.2553 23.579 15.484 27.2065 15.2896 21.4413C15.1343 16.8292 30.9033 15.7193 38.8072 15.7409C35.3303 16.2591 27.2882 17.6324 22.9344 18.9798C17.4924 20.664 20.8613 22.5425 24.4245 22.6073C27.9879 22.6721 40.7508 24.1619 34.2073 29.085C27.664 34.0081 6.09008 29.2146 3.82247 26.2348C2.634 24.673 2.13961 23.4315 3.82247 21.6337C5.35043 20.0014 8.67327 17.9103 14.9009 14.7045ZM71.2652 22.5425C69.4762 22.5425 68.026 23.9926 68.0259 25.7814C68.0259 27.5701 69.4762 29.0202 71.2652 29.0202C73.0543 29.0202 74.5046 27.5701 74.5046 25.7814C74.5046 23.9926 73.0543 22.5425 71.2652 22.5425Z" fill="url(#paint0_linear_322_149)"/>
<path d="M15.2896 21.4413C15.1341 16.8292 30.9032 15.7193 38.8072 15.7409C35.3303 16.2591 27.2881 17.6324 22.9344 18.9798C17.4924 20.664 20.8613 22.5425 24.4245 22.6073C27.9878 22.6721 40.7508 24.1619 34.2073 29.085C27.6639 34.0081 6.08995 29.2146 3.82241 26.2348C2.63393 24.673 2.13955 23.4316 3.82241 21.6337L6.08995 22.9312C5.89559 29.085 30.1258 29.5385 30.1905 26.5587C30.2553 23.579 15.484 27.2065 15.2896 21.4413Z" fill="#111111"/>
<path d="M3.82239 21.6338C5.35034 20.0014 8.67313 17.9104 14.9009 14.7045L16.1966 15.7024C10.4177 18.0626 6.16095 20.6828 6.08994 22.9312L3.82239 21.6338Z" fill="url(#paint1_linear_322_149)"/>
<path d="M6.67302 0C8.81098 0 13.0221 1.4251 13.0221 6.41296C13.0221 10.4032 8.78938 14.8124 6.67302 16.5182C4.44867 14.8124 0 10.4032 0 6.41296C0 1.4251 4.53506 0 6.67302 0ZM6.47866 2.8502C4.68963 2.8502 3.23933 4.30029 3.23933 6.08907C3.23933 7.87784 4.68963 9.32794 6.47866 9.32794C8.26769 9.32794 9.71799 7.87784 9.71799 6.08907C9.71799 4.30029 8.26769 2.8502 6.47866 2.8502Z" fill="url(#paint2_linear_322_149)"/>
</g>
<defs>
<linearGradient id="paint0_linear_322_149" x1="2.7378" y1="6.58743" x2="86.4536" y2="25.0623" gradientUnits="userSpaceOnUse">
<stop stop-color="#FF9D00"/>
<stop offset="1" stop-color="#FF5100"/>
</linearGradient>
<linearGradient id="paint1_linear_322_149" x1="13.0221" y1="16.0648" x2="4.92461" y2="22.2197" gradientUnits="userSpaceOnUse">
<stop stop-color="#FF8E00"/>
<stop offset="1" stop-color="#111111"/>
</linearGradient>
<linearGradient id="paint2_linear_322_149" x1="0" y1="0" x2="13.8683" y2="0.744031" gradientUnits="userSpaceOnUse">
<stop stop-color="#FF9D00"/>
<stop offset="1" stop-color="#FF5100"/>
</linearGradient>
<clipPath id="clip0_322_149">
<rect width="85" height="32" fill="white"/>
</clipPath>
</defs>
</svg>
