<svg width="40" height="40" viewBox="0 0 40 40" fill="none" xmlns="http://www.w3.org/2000/svg">
<path d="M35 20C35 29.2047 31.5462 36.6667 27.2857 36.6667H14.4286C15.8727 35.7308 17.1877 34.0843 18.0937 32.1272C19.55 28.9807 20.4285 24.6923 20.4285 20C20.4285 15.3077 19.55 11.0194 18.0937 7.87293C17.1877 5.91566 15.8727 4.26913 14.4286 3.33334H27.2857C31.5462 3.33334 35 10.7953 35 20Z" fill="url(#paint0_linear_7_417)"/>
<path fill-rule="evenodd" clip-rule="evenodd" d="M7.18397 8.55684C5.8483 11.4425 5 15.4876 5 20C5 24.5125 5.8483 28.5575 7.18397 31.4432C8.55583 34.407 10.2743 35.8333 11.8572 35.8333C13.44 35.8333 15.1585 34.407 16.5303 31.4432C17.866 28.5575 18.7143 24.5125 18.7143 20C18.7143 15.4876 17.866 11.4425 16.5303 8.55684C15.1585 5.59294 13.44 4.16666 11.8572 4.16666C10.2743 4.16666 8.55583 5.59294 7.18397 8.55684ZM9.28572 20C9.28572 25.5228 10.437 30 11.8572 30C13.1685 30 14.2505 26.1828 14.4087 21.25H12.7143C12.0042 21.25 11.4286 20.6903 11.4286 20C11.4286 19.3097 12.0042 18.75 12.7143 18.75H14.4087C14.2505 13.8171 13.1685 9.99999 11.8572 9.99999C10.437 9.99999 9.28572 14.4771 9.28572 20Z" fill="url(#paint1_linear_7_417)"/>
<defs>
<linearGradient id="paint0_linear_7_417" x1="14.4286" y1="3.33334" x2="36.3613" y2="4.25448" gradientUnits="userSpaceOnUse">
<stop stop-color="#FF9D00"/>
<stop offset="1" stop-color="#FF5100"/>
</linearGradient>
<linearGradient id="paint1_linear_7_417" x1="5" y1="4.16666" x2="19.6349" y2="4.59799" gradientUnits="userSpaceOnUse">
<stop stop-color="#FF9D00"/>
<stop offset="1" stop-color="#FF5100"/>
</linearGradient>
</defs>
</svg>
